<svg width="16" height="16" viewBox="0 0 16 16" fill="none" xmlns="http://www.w3.org/2000/svg">
<circle cx="8" cy="8.66663" r="2" stroke="black" stroke-width="2" stroke-linecap="round" stroke-linejoin="round"/>
<path d="M3.33333 3.66663C2.78105 3.66663 2.33333 4.11434 2.33333 4.66663C2.33333 5.21891 2.78105 5.66663 3.33333 5.66663V3.66663ZM8 3.66663C8.55229 3.66663 9 3.21891 9 2.66663C9 2.11434 8.55229 1.66663 8 1.66663V3.66663ZM15 7.33329C15 6.78101 14.5523 6.33329 14 6.33329C13.4477 6.33329 13 6.78101 13 7.33329H15ZM3.33333 5.66663C3.88562 5.66663 4.33333 5.21891 4.33333 4.66663C4.33333 4.11434 3.88562 3.66663 3.33333 3.66663V5.66663ZM3.33333 5.66663H4.66667V3.66663H3.33333V5.66663ZM4.66667 5.66663C5.95533 5.66663 7 4.62196 7 3.33329H5C5 3.51739 4.85076 3.66663 4.66667 3.66663V5.66663ZM7 3.33329C7 3.51739 6.85076 3.66663 6.66667 3.66663V1.66663C5.74619 1.66663 5 2.41282 5 3.33329H7ZM6.66667 3.66663H8V1.66663H6.66667V3.66663ZM13 7.33329V12H15V7.33329H13ZM13 12C13 12.1841 12.8508 12.3333 12.6667 12.3333V14.3333C13.9553 14.3333 15 13.2886 15 12H13ZM12.6667 12.3333H3.33333V14.3333H12.6667V12.3333ZM3.33333 12.3333C3.14924 12.3333 3 12.1841 3 12H1C1 13.2886 2.04467 14.3333 3.33333 14.3333V12.3333ZM3 12V5.99996H1V12H3ZM3 5.99996C3 5.81586 3.14924 5.66663 3.33333 5.66663V3.66663C2.04467 3.66663 1 4.71129 1 5.99996H3Z" fill="black"/>
<path d="M10 3.99996H14" stroke="black" stroke-width="2" stroke-linecap="round" stroke-linejoin="round"/>
<path d="M12 2V6" stroke="black" stroke-width="2" stroke-linecap="round" stroke-linejoin="round"/>
</svg>
