<svg width="24" height="24" viewBox="0 0 24 24" fill="none" xmlns="http://www.w3.org/2000/svg">
<circle cx="12" cy="13" r="3" stroke="black" stroke-width="2" stroke-linecap="round" stroke-linejoin="round"/>
<path d="M5 6C4.44772 6 4 6.44772 4 7C4 7.55228 4.44772 8 5 8V6ZM12 5C12.5523 5 13 4.55228 13 4C13 3.44772 12.5523 3 12 3V5ZM22 11C22 10.4477 21.5523 10 21 10C20.4477 10 20 10.4477 20 11H22ZM5 8C5.55228 8 6 7.55228 6 7C6 6.44772 5.55228 6 5 6V8ZM5 8H7V6H5V8ZM7 8C8.65685 8 10 6.65685 10 5H8C8 5.55228 7.55228 6 7 6V8ZM10 5V3C8.89543 3 8 3.89543 8 5H10ZM10 5H12V3H10V5ZM20 11V18H22V11H20ZM20 18C20 18.5523 19.5523 19 19 19V21C20.6569 21 22 19.6569 22 18H20ZM19 19H5V21H19V19ZM5 19C4.44772 19 4 18.5523 4 18H2C2 19.6569 3.34315 21 5 21V19ZM4 18V9H2V18H4ZM4 9C4 8.44772 4.44772 8 5 8V6C3.34315 6 2 7.34315 2 9H4Z" fill="black"/>
<path d="M15 6H21" stroke="black" stroke-width="2" stroke-linecap="round" stroke-linejoin="round"/>
<path d="M18 3V9" stroke="black" stroke-width="2" stroke-linecap="round" stroke-linejoin="round"/>
</svg>
